<?xml version="1.0" encoding="UTF-8" standalone="no"?>
<!DOCTYPE svg PUBLIC "-//W3C//DTD SVG 1.0//EN" "http://www.w3.org/TR/2001/PR-SVG-20010719/DTD/svg10.dtd">
<svg width="44cm" height="18cm" viewBox="87 67 869 354" xmlns="http://www.w3.org/2000/svg" xmlns:xlink="http://www.w3.org/1999/xlink">
  <line style="fill: none; fill-opacity:0; stroke-width: 2; stroke: #000000" x1="89" y1="83" x2="160" y2="84"/>
  <text font-size="12.7998" style="fill: #000000;text-anchor:start;font-family:sans-serif;font-style:normal;font-weight:normal" x="100" y="80">
    <tspan x="100" y="80">Player 1</tspan>
  </text>
  <line style="fill: none; fill-opacity:0; stroke-width: 2; stroke: #000000" x1="89" y1="123" x2="160" y2="124"/>
  <text font-size="12.7998" style="fill: #000000;text-anchor:start;font-family:sans-serif;font-style:normal;font-weight:normal" x="100" y="120">
    <tspan x="100" y="120">Player 2</tspan>
  </text>
  <line style="fill: none; fill-opacity:0; stroke-width: 2; stroke: #000000" x1="89" y1="163" x2="160" y2="164"/>
  <text font-size="12.7998" style="fill: #000000;text-anchor:start;font-family:sans-serif;font-style:normal;font-weight:normal" x="100" y="160">
    <tspan x="100" y="160">Player 3</tspan>
    <tspan x="100" y="176"></tspan>
  </text>
  <line style="fill: none; fill-opacity:0; stroke-width: 2; stroke: #000000" x1="89" y1="203" x2="160" y2="204"/>
  <text font-size="12.7998" style="fill: #000000;text-anchor:start;font-family:sans-serif;font-style:normal;font-weight:normal" x="100" y="200">
    <tspan x="100" y="200">Player 4</tspan>
  </text>
  <g>
    <g>
      <path style="fill: #ffffff" d="M 218 118 C 231.5,118 227,118 236,118 C 245,118 222.5,100 245,100 C 267.5,100 245,118 254,118 C 263,118 267.5,118 272,118 C 272,122.5 272,127 272,136 C 272,145 290,122.5 290,145 C 290,167.5 272,145 272,154 C 272,163 272,167.5 272,172 C 267.5,172 263,172 254,172 C 245,172 267.5,190 245,190 C 222.5,190 245,172 236,172 C 227,172 222.5,172 218,172 C 218,167.5 218,163 218,154 C 218,145 200,167.5 200,145 C 200,122.5 218,145 218,136 C 218,127 218,122.5 218,118z"/>
      <path style="fill: none; fill-opacity:0; stroke-width: 2; stroke: #000000" d="M 218 118 C 231.5,118 227,118 236,118 C 245,118 222.5,100 245,100 C 267.5,100 245,118 254,118 C 263,118 267.5,118 272,118 C 272,122.5 272,127 272,136 C 272,145 290,122.5 290,145 C 290,167.5 272,145 272,154 C 272,163 272,167.5 272,172 C 267.5,172 263,172 254,172 C 245,172 267.5,190 245,190 C 222.5,190 245,172 236,172 C 227,172 222.5,172 218,172 C 218,167.5 218,163 218,154 C 218,145 200,167.5 200,145 C 200,122.5 218,145 218,136 C 218,127 218,122.5 218,118"/>
      <path style="fill: none; fill-opacity:0; stroke-width: 0.2; stroke: #000000" d="M 218 118 C 231.5,118 227,118 236,118 C 245,118 222.5,100 245,100 C 267.5,100 245,118 254,118 C 263,118 267.5,118 272,118 C 272,122.5 272,127 272,136 C 272,145 290,122.5 290,145 C 290,167.5 272,145 272,154 C 272,163 272,167.5 272,172 C 267.5,172 263,172 254,172 C 245,172 267.5,190 245,190 C 222.5,190 245,172 236,172 C 227,172 222.5,172 218,172 C 218,167.5 218,163 218,154 C 218,145 200,167.5 200,145 C 200,122.5 218,145 218,136 C 218,127 218,122.5 218,118"/>
    </g>
    <text font-size="12.7998" style="fill: #000000;text-anchor:start;font-family:sans-serif;font-style:normal;font-weight:normal" x="222" y="149">
      <tspan x="222" y="149">Game 1</tspan>
    </text>
  </g>
  <g>
    <path style="fill: none; fill-opacity:0; stroke-width: 2; stroke: #000000" d="M 160 84 C 171.039,84 224.961,106 226.264,106"/>
    <polygon style="fill: #000000" points="233.764,106 223.764,111 226.264,106 223.764,101 "/>
    <polygon style="fill: none; fill-opacity:0; stroke-width: 2; stroke: #000000" points="233.764,106 223.764,111 226.264,106 223.764,101 "/>
  </g>
  <g>
    <path style="fill: none; fill-opacity:0; stroke-width: 2; stroke: #000000" d="M 160 124 C 179.256,124 198.744,126 208.264,126"/>
    <polygon style="fill: #000000" points="215.764,126 205.764,131 208.264,126 205.764,121 "/>
    <polygon style="fill: none; fill-opacity:0; stroke-width: 2; stroke: #000000" points="215.764,126 205.764,131 208.264,126 205.764,121 "/>
  </g>
  <g>
    <path style="fill: none; fill-opacity:0; stroke-width: 2; stroke: #000000" d="M 160 164 C 179.588,164 199.412,161 209.264,161"/>
    <polygon style="fill: #000000" points="216.764,161 206.764,166 209.264,161 206.764,156 "/>
    <polygon style="fill: none; fill-opacity:0; stroke-width: 2; stroke: #000000" points="216.764,161 206.764,166 209.264,161 206.764,156 "/>
  </g>
  <g>
    <path style="fill: none; fill-opacity:0; stroke-width: 2; stroke: #000000" d="M 160 202 C 185.232,202 210.768,182 226.264,182"/>
    <polygon style="fill: #000000" points="233.764,182 223.764,187 226.264,182 223.764,177 "/>
    <polygon style="fill: none; fill-opacity:0; stroke-width: 2; stroke: #000000" points="233.764,182 223.764,187 226.264,182 223.764,177 "/>
  </g>
  <text font-size="12.7998" style="fill: #000000;text-anchor:start;font-family:sans-serif;font-style:normal;font-weight:normal" x="219.214" y="250.481">
    <tspan x="219.214" y="250.481">loser</tspan>
  </text>
  <g>
    <path style="fill: none; fill-opacity:0; stroke-width: 2; stroke: #000000" d="M 246 190 C 234.38,190 244.002,255 280.736,277.856"/>
    <polygon style="fill: #000000" points="287.103,281.819 275.971,280.781 280.736,277.856 281.254,272.29 "/>
    <polygon style="fill: none; fill-opacity:0; stroke-width: 2; stroke: #000000" points="287.103,281.819 275.971,280.781 280.736,277.856 281.254,272.29 "/>
  </g>
  <g>
    <path style="fill: none; fill-opacity:0; stroke-width: 2; stroke: #000000" d="M 291 144 C 319.22,144 319.78,192 338.264,192"/>
    <polygon style="fill: #000000" points="345.764,192 335.764,197 338.264,192 335.764,187 "/>
    <polygon style="fill: none; fill-opacity:0; stroke-width: 2; stroke: #000000" points="345.764,192 335.764,197 338.264,192 335.764,187 "/>
  </g>
  <g>
    <g>
      <path style="fill: #ffffff" d="M 366.25 163.25 C 379.938,163.25 375.375,163.25 384.5,163.25 C 393.625,163.25 370.813,145 393.625,145 C 416.438,145 393.625,163.25 402.75,163.25 C 411.875,163.25 416.438,163.25 421,163.25 C 421,167.812 421,172.375 421,181.5 C 421,190.625 439.25,167.812 439.25,190.625 C 439.25,213.437 421,190.625 421,199.75 C 421,208.875 421,213.437 421,218 C 416.438,218 411.875,218 402.75,218 C 393.625,218 416.438,199.75 393.625,199.75 C 370.813,199.75 393.625,218 384.5,218 C 375.375,218 370.813,218 366.25,218 C 366.25,213.437 366.25,208.875 366.25,199.75 C 366.25,190.625 348,213.437 348,190.625 C 348,167.812 366.25,190.625 366.25,181.5 C 366.25,172.375 366.25,167.812 366.25,163.25z"/>
      <path style="fill: none; fill-opacity:0; stroke-width: 2; stroke: #000000" d="M 366.25 163.25 C 379.938,163.25 375.375,163.25 384.5,163.25 C 393.625,163.25 370.813,145 393.625,145 C 416.438,145 393.625,163.25 402.75,163.25 C 411.875,163.25 416.438,163.25 421,163.25 C 421,167.812 421,172.375 421,181.5 C 421,190.625 439.25,167.812 439.25,190.625 C 439.25,213.437 421,190.625 421,199.75 C 421,208.875 421,213.437 421,218 C 416.438,218 411.875,218 402.75,218 C 393.625,218 416.438,199.75 393.625,199.75 C 370.813,199.75 393.625,218 384.5,218 C 375.375,218 370.813,218 366.25,218 C 366.25,213.437 366.25,208.875 366.25,199.75 C 366.25,190.625 348,213.437 348,190.625 C 348,167.812 366.25,190.625 366.25,181.5 C 366.25,172.375 366.25,167.812 366.25,163.25"/>
      <path style="fill: none; fill-opacity:0; stroke-width: 0.2; stroke: #000000" d="M 366.25 163.25 C 379.938,163.25 375.375,163.25 384.5,163.25 C 393.625,163.25 370.813,145 393.625,145 C 416.438,145 393.625,163.25 402.75,163.25 C 411.875,163.25 416.438,163.25 421,163.25 C 421,167.812 421,172.375 421,181.5 C 421,190.625 439.25,167.812 439.25,190.625 C 439.25,213.437 421,190.625 421,199.75 C 421,208.875 421,213.437 421,218 C 416.438,218 411.875,218 402.75,218 C 393.625,218 416.438,199.75 393.625,199.75 C 370.813,199.75 393.625,218 384.5,218 C 375.375,218 370.813,218 366.25,218 C 366.25,213.437 366.25,208.875 366.25,199.75 C 366.25,190.625 348,213.437 348,190.625 C 348,167.812 366.25,190.625 366.25,181.5 C 366.25,172.375 366.25,167.812 366.25,163.25"/>
    </g>
    <text font-size="12.7998" style="fill: #000000;text-anchor:start;font-family:sans-serif;font-style:normal;font-weight:normal" x="368.2" y="190.6">
      <tspan x="368.2" y="190.6">Game 2</tspan>
    </text>
  </g>
  <text font-size="12.7998" style="fill: #000000;text-anchor:start;font-family:sans-serif;font-style:normal;font-weight:normal" x="308" y="149">
    <tspan x="308" y="149">3 winners</tspan>
  </text>
  <text font-size="12.7998" style="fill: #000000;text-anchor:start;font-family:sans-serif;font-style:normal;font-weight:normal" x="357.214" y="252.481">
    <tspan x="357.214" y="252.481">loser</tspan>
  </text>
  <g>
    <path style="fill: none; fill-opacity:0; stroke-width: 2; stroke: #000000" d="M 352 201 C 359.304,201 363.002,242 338.844,274.211"/>
    <polygon style="fill: #000000" points="334.344,280.211 336.344,269.211 338.844,274.211 344.344,275.211 "/>
    <polygon style="fill: none; fill-opacity:0; stroke-width: 2; stroke: #000000" points="334.344,280.211 336.344,269.211 338.844,274.211 344.344,275.211 "/>
  </g>
  <g>
    <g>
      <path style="fill: #ffffff" d="M 282.467 282 C 297.317,282 292.367,282 302.267,282 C 312.167,282 287.417,301.8 312.167,301.8 C 336.917,301.8 312.167,282 322.067,282 C 331.967,282 336.917,282 341.867,282 C 341.867,286.95 341.867,291.9 341.867,301.8 C 341.867,311.7 361.667,286.95 361.667,311.7 C 361.667,336.45 341.867,311.7 341.867,321.6 C 341.867,331.5 341.867,336.45 341.867,341.4 C 336.917,341.4 331.967,341.4 322.067,341.4 C 312.167,341.4 336.917,321.6 312.167,321.6 C 287.417,321.6 312.167,341.4 302.267,341.4 C 292.367,341.4 287.417,341.4 282.467,341.4 C 282.467,336.45 282.467,331.5 282.467,321.6 C 282.467,311.7 262.667,336.45 262.667,311.7 C 262.667,286.95 282.467,311.7 282.467,301.8 C 282.467,291.9 282.467,286.95 282.467,282z"/>
      <path style="fill: none; fill-opacity:0; stroke-width: 2; stroke: #000000" d="M 282.467 282 C 297.317,282 292.367,282 302.267,282 C 312.167,282 287.417,301.8 312.167,301.8 C 336.917,301.8 312.167,282 322.067,282 C 331.967,282 336.917,282 341.867,282 C 341.867,286.95 341.867,291.9 341.867,301.8 C 341.867,311.7 361.667,286.95 361.667,311.7 C 361.667,336.45 341.867,311.7 341.867,321.6 C 341.867,331.5 341.867,336.45 341.867,341.4 C 336.917,341.4 331.967,341.4 322.067,341.4 C 312.167,341.4 336.917,321.6 312.167,321.6 C 287.417,321.6 312.167,341.4 302.267,341.4 C 292.367,341.4 287.417,341.4 282.467,341.4 C 282.467,336.45 282.467,331.5 282.467,321.6 C 282.467,311.7 262.667,336.45 262.667,311.7 C 262.667,286.95 282.467,311.7 282.467,301.8 C 282.467,291.9 282.467,286.95 282.467,282"/>
      <path style="fill: none; fill-opacity:0; stroke-width: 0.2; stroke: #000000" d="M 282.467 282 C 297.317,282 292.367,282 302.267,282 C 312.167,282 287.417,301.8 312.167,301.8 C 336.917,301.8 312.167,282 322.067,282 C 331.967,282 336.917,282 341.867,282 C 341.867,286.95 341.867,291.9 341.867,301.8 C 341.867,311.7 361.667,286.95 361.667,311.7 C 361.667,336.45 341.867,311.7 341.867,321.6 C 341.867,331.5 341.867,336.45 341.867,341.4 C 336.917,341.4 331.967,341.4 322.067,341.4 C 312.167,341.4 336.917,321.6 312.167,321.6 C 287.417,321.6 312.167,341.4 302.267,341.4 C 292.367,341.4 287.417,341.4 282.467,341.4 C 282.467,336.45 282.467,331.5 282.467,321.6 C 282.467,311.7 262.667,336.45 262.667,311.7 C 262.667,286.95 282.467,311.7 282.467,301.8 C 282.467,291.9 282.467,286.95 282.467,282"/>
    </g>
    <text font-size="12.7998" style="fill: #000000;text-anchor:start;font-family:sans-serif;font-style:normal;font-weight:normal" x="291" y="316">
      <tspan x="291" y="316">Game 3</tspan>
    </text>
  </g>
  <g>
    <g>
      <path style="fill: #ffffff" d="M 519.075 216.075 C 532.631,216.075 528.113,216.075 537.15,216.075 C 546.188,216.075 523.594,198 546.188,198 C 568.781,198 546.188,216.075 555.225,216.075 C 564.263,216.075 568.781,216.075 573.3,216.075 C 573.3,220.594 573.3,225.112 573.3,234.15 C 573.3,243.187 591.375,220.594 591.375,243.187 C 591.375,265.781 573.3,243.187 573.3,252.225 C 573.3,261.262 573.3,265.781 573.3,270.3 C 568.781,270.3 564.263,270.3 555.225,270.3 C 546.188,270.3 568.781,252.225 546.188,252.225 C 523.594,252.225 546.188,270.3 537.15,270.3 C 528.113,270.3 523.594,270.3 519.075,270.3 C 519.075,265.781 519.075,261.262 519.075,252.225 C 519.075,243.187 501,265.781 501,243.187 C 501,220.594 519.075,243.187 519.075,234.15 C 519.075,225.112 519.075,220.594 519.075,216.075z"/>
      <path style="fill: none; fill-opacity:0; stroke-width: 2; stroke: #000000" d="M 519.075 216.075 C 532.631,216.075 528.113,216.075 537.15,216.075 C 546.188,216.075 523.594,198 546.188,198 C 568.781,198 546.188,216.075 555.225,216.075 C 564.263,216.075 568.781,216.075 573.3,216.075 C 573.3,220.594 573.3,225.112 573.3,234.15 C 573.3,243.187 591.375,220.594 591.375,243.187 C 591.375,265.781 573.3,243.187 573.3,252.225 C 573.3,261.262 573.3,265.781 573.3,270.3 C 568.781,270.3 564.263,270.3 555.225,270.3 C 546.188,270.3 568.781,252.225 546.188,252.225 C 523.594,252.225 546.188,270.3 537.15,270.3 C 528.113,270.3 523.594,270.3 519.075,270.3 C 519.075,265.781 519.075,261.262 519.075,252.225 C 519.075,243.187 501,265.781 501,243.187 C 501,220.594 519.075,243.187 519.075,234.15 C 519.075,225.112 519.075,220.594 519.075,216.075"/>
      <path style="fill: none; fill-opacity:0; stroke-width: 0.2; stroke: #000000" d="M 519.075 216.075 C 532.631,216.075 528.113,216.075 537.15,216.075 C 546.188,216.075 523.594,198 546.188,198 C 568.781,198 546.188,216.075 555.225,216.075 C 564.263,216.075 568.781,216.075 573.3,216.075 C 573.3,220.594 573.3,225.112 573.3,234.15 C 573.3,243.187 591.375,220.594 591.375,243.187 C 591.375,265.781 573.3,243.187 573.3,252.225 C 573.3,261.262 573.3,265.781 573.3,270.3 C 568.781,270.3 564.263,270.3 555.225,270.3 C 546.188,270.3 568.781,252.225 546.188,252.225 C 523.594,252.225 546.188,270.3 537.15,270.3 C 528.113,270.3 523.594,270.3 519.075,270.3 C 519.075,265.781 519.075,261.262 519.075,252.225 C 519.075,243.187 501,265.781 501,243.187 C 501,220.594 519.075,243.187 519.075,234.15 C 519.075,225.112 519.075,220.594 519.075,216.075"/>
    </g>
    <text font-size="12.7998" style="fill: #000000;text-anchor:start;font-family:sans-serif;font-style:normal;font-weight:normal" x="523" y="245">
      <tspan x="523" y="245">Game 4</tspan>
    </text>
  </g>
  <g>
    <path style="fill: none; fill-opacity:0; stroke-width: 2; stroke: #000000" d="M 438 189 C 465.556,189 468,222 511.264,222"/>
    <polygon style="fill: #000000" points="518.764,222 508.764,227 511.264,222 508.764,217 "/>
    <polygon style="fill: none; fill-opacity:0; stroke-width: 2; stroke: #000000" points="518.764,222 508.764,227 511.264,222 508.764,217 "/>
  </g>
  <g>
    <path style="fill: none; fill-opacity:0; stroke-width: 2; stroke: #000000" d="M 363.002 315 C 463.002,354 465.212,262 508.264,262"/>
    <polygon style="fill: #000000" points="515.764,262 505.764,267 508.264,262 505.764,257 "/>
    <polygon style="fill: none; fill-opacity:0; stroke-width: 2; stroke: #000000" points="515.764,262 505.764,267 508.264,262 505.764,257 "/>
  </g>
  <text font-size="12.7998" style="fill: #000000;text-anchor:start;font-family:sans-serif;font-style:normal;font-weight:normal" x="465" y="199">
    <tspan x="465" y="199">2 winners</tspan>
  </text>
  <text font-size="12.7998" style="fill: #000000;text-anchor:start;font-family:sans-serif;font-style:normal;font-weight:normal" x="451" y="317">
    <tspan x="451" y="317">winner</tspan>
  </text>
  <text font-size="12.7998" style="fill: #000000;text-anchor:start;font-family:sans-serif;font-style:normal;font-weight:normal" x="390" y="374">
    <tspan x="390" y="374">loser is out</tspan>
  </text>
  <g>
    <path style="fill: none; fill-opacity:0; stroke-width: 2; stroke: #000000" d="M 334.002 342 C 348.278,342 341.002,362 378.372,367.566"/>
    <polygon style="fill: #000000" points="385.79,368.671 375.163,372.143 378.372,367.566 376.636,362.252 "/>
    <polygon style="fill: none; fill-opacity:0; stroke-width: 2; stroke: #000000" points="385.79,368.671 375.163,372.143 378.372,367.566 376.636,362.252 "/>
  </g>
  <g>
    <path style="fill: none; fill-opacity:0; stroke-width: 2; stroke: #000000" d="M 591 240 C 613.576,240 606,263 649.679,276.186"/>
    <polygon style="fill: #000000" points="656.859,278.354 645.841,280.25 649.679,276.186 648.731,270.677 "/>
    <polygon style="fill: none; fill-opacity:0; stroke-width: 2; stroke: #000000" points="656.859,278.354 645.841,280.25 649.679,276.186 648.731,270.677 "/>
  </g>
  <text font-size="12.7998" style="fill: #000000;text-anchor:start;font-family:sans-serif;font-style:normal;font-weight:normal" x="610" y="251">
    <tspan x="610" y="251">2 winners</tspan>
  </text>
  <g>
    <g>
      <path style="fill: #ffffff" d="M 681.167 253 C 695.042,253 690.417,253 699.667,253 C 708.917,253 685.792,271.5 708.917,271.5 C 732.042,271.5 708.917,253 718.167,253 C 727.417,253 732.042,253 736.667,253 C 736.667,257.625 736.667,262.25 736.667,271.5 C 736.667,280.75 755.167,257.625 755.167,280.75 C 755.167,303.875 736.667,280.75 736.667,290 C 736.667,299.25 736.667,303.875 736.667,308.5 C 732.042,308.5 727.417,308.5 718.167,308.5 C 708.917,308.5 732.042,290 708.917,290 C 685.792,290 708.917,308.5 699.667,308.5 C 690.417,308.5 685.792,308.5 681.167,308.5 C 681.167,303.875 681.167,299.25 681.167,290 C 681.167,280.75 662.667,303.875 662.667,280.75 C 662.667,257.625 681.167,280.75 681.167,271.5 C 681.167,262.25 681.167,257.625 681.167,253z"/>
      <path style="fill: none; fill-opacity:0; stroke-width: 2; stroke: #000000" d="M 681.167 253 C 695.042,253 690.417,253 699.667,253 C 708.917,253 685.792,271.5 708.917,271.5 C 732.042,271.5 708.917,253 718.167,253 C 727.417,253 732.042,253 736.667,253 C 736.667,257.625 736.667,262.25 736.667,271.5 C 736.667,280.75 755.167,257.625 755.167,280.75 C 755.167,303.875 736.667,280.75 736.667,290 C 736.667,299.25 736.667,303.875 736.667,308.5 C 732.042,308.5 727.417,308.5 718.167,308.5 C 708.917,308.5 732.042,290 708.917,290 C 685.792,290 708.917,308.5 699.667,308.5 C 690.417,308.5 685.792,308.5 681.167,308.5 C 681.167,303.875 681.167,299.25 681.167,290 C 681.167,280.75 662.667,303.875 662.667,280.75 C 662.667,257.625 681.167,280.75 681.167,271.5 C 681.167,262.25 681.167,257.625 681.167,253"/>
      <path style="fill: none; fill-opacity:0; stroke-width: 0.2; stroke: #000000" d="M 681.167 253 C 695.042,253 690.417,253 699.667,253 C 708.917,253 685.792,271.5 708.917,271.5 C 732.042,271.5 708.917,253 718.167,253 C 727.417,253 732.042,253 736.667,253 C 736.667,257.625 736.667,262.25 736.667,271.5 C 736.667,280.75 755.167,257.625 755.167,280.75 C 755.167,303.875 736.667,280.75 736.667,290 C 736.667,299.25 736.667,303.875 736.667,308.5 C 732.042,308.5 727.417,308.5 718.167,308.5 C 708.917,308.5 732.042,290 708.917,290 C 685.792,290 708.917,308.5 699.667,308.5 C 690.417,308.5 685.792,308.5 681.167,308.5 C 681.167,303.875 681.167,299.25 681.167,290 C 681.167,280.75 662.667,303.875 662.667,280.75 C 662.667,257.625 681.167,280.75 681.167,271.5 C 681.167,262.25 681.167,257.625 681.167,253"/>
    </g>
    <text font-size="12.7998" style="fill: #000000;text-anchor:start;font-family:sans-serif;font-style:normal;font-weight:normal" x="686" y="284">
      <tspan x="686" y="284">Game 5</tspan>
    </text>
  </g>
  <g>
    <g>
      <path style="fill: #ffffff" d="M 581.202 342.6 C 595.077,342.6 590.452,342.6 599.702,342.6 C 608.952,342.6 585.827,361.1 608.952,361.1 C 632.077,361.1 608.952,342.6 618.202,342.6 C 627.452,342.6 632.077,342.6 636.702,342.6 C 636.702,347.225 636.702,351.85 636.702,361.1 C 636.702,370.35 655.202,347.225 655.202,370.35 C 655.202,393.475 636.702,370.35 636.702,379.6 C 636.702,388.85 636.702,393.475 636.702,398.1 C 632.077,398.1 627.452,398.1 618.202,398.1 C 608.952,398.1 632.077,379.6 608.952,379.6 C 585.827,379.6 608.952,398.1 599.702,398.1 C 590.452,398.1 585.827,398.1 581.202,398.1 C 581.202,393.475 581.202,388.85 581.202,379.6 C 581.202,370.35 562.702,393.475 562.702,370.35 C 562.702,347.225 581.202,370.35 581.202,361.1 C 581.202,351.85 581.202,347.225 581.202,342.6z"/>
      <path style="fill: none; fill-opacity:0; stroke-width: 2; stroke: #000000" d="M 581.202 342.6 C 595.077,342.6 590.452,342.6 599.702,342.6 C 608.952,342.6 585.827,361.1 608.952,361.1 C 632.077,361.1 608.952,342.6 618.202,342.6 C 627.452,342.6 632.077,342.6 636.702,342.6 C 636.702,347.225 636.702,351.85 636.702,361.1 C 636.702,370.35 655.202,347.225 655.202,370.35 C 655.202,393.475 636.702,370.35 636.702,379.6 C 636.702,388.85 636.702,393.475 636.702,398.1 C 632.077,398.1 627.452,398.1 618.202,398.1 C 608.952,398.1 632.077,379.6 608.952,379.6 C 585.827,379.6 608.952,398.1 599.702,398.1 C 590.452,398.1 585.827,398.1 581.202,398.1 C 581.202,393.475 581.202,388.85 581.202,379.6 C 581.202,370.35 562.702,393.475 562.702,370.35 C 562.702,347.225 581.202,370.35 581.202,361.1 C 581.202,351.85 581.202,347.225 581.202,342.6"/>
      <path style="fill: none; fill-opacity:0; stroke-width: 0.2; stroke: #000000" d="M 581.202 342.6 C 595.077,342.6 590.452,342.6 599.702,342.6 C 608.952,342.6 585.827,361.1 608.952,361.1 C 632.077,361.1 608.952,342.6 618.202,342.6 C 627.452,342.6 632.077,342.6 636.702,342.6 C 636.702,347.225 636.702,351.85 636.702,361.1 C 636.702,370.35 655.202,347.225 655.202,370.35 C 655.202,393.475 636.702,370.35 636.702,379.6 C 636.702,388.85 636.702,393.475 636.702,398.1 C 632.077,398.1 627.452,398.1 618.202,398.1 C 608.952,398.1 632.077,379.6 608.952,379.6 C 585.827,379.6 608.952,398.1 599.702,398.1 C 590.452,398.1 585.827,398.1 581.202,398.1 C 581.202,393.475 581.202,388.85 581.202,379.6 C 581.202,370.35 562.702,393.475 562.702,370.35 C 562.702,347.225 581.202,370.35 581.202,361.1 C 581.202,351.85 581.202,347.225 581.202,342.6"/>
    </g>
    <text font-size="12.7998" style="fill: #000000;text-anchor:start;font-family:sans-serif;font-style:normal;font-weight:normal" x="586.035" y="373.6">
      <tspan x="586.035" y="373.6">Game 6</tspan>
    </text>
  </g>
  <g>
    <path style="fill: none; fill-opacity:0; stroke-width: 2; stroke: #000000" d="M 564.502 270 C 573.134,270 545.502,308 582.899,337.918"/>
    <polygon style="fill: #000000" points="588.756,342.603 577.824,340.261 582.899,337.918 584.071,332.452 "/>
    <polygon style="fill: none; fill-opacity:0; stroke-width: 2; stroke: #000000" points="588.756,342.603 577.824,340.261 582.899,337.918 584.071,332.452 "/>
  </g>
  <g>
    <path style="fill: none; fill-opacity:0; stroke-width: 2; stroke: #000000" d="M 695.502 308 C 676.578,308 697.502,345 648.203,349.178"/>
    <polygon style="fill: #000000" points="640.73,349.811 650.272,343.985 648.203,349.178 651.117,353.949 "/>
    <polygon style="fill: none; fill-opacity:0; stroke-width: 2; stroke: #000000" points="640.73,349.811 650.272,343.985 648.203,349.178 651.117,353.949 "/>
  </g>
  <text font-size="12.7998" style="fill: #000000;text-anchor:start;font-family:sans-serif;font-style:normal;font-weight:normal" x="529.702" y="313.481">
    <tspan x="529.702" y="313.481">loser</tspan>
  </text>
  <text font-size="12.7998" style="fill: #000000;text-anchor:start;font-family:sans-serif;font-style:normal;font-weight:normal" x="684.902" y="340.081">
    <tspan x="684.902" y="340.081">loser</tspan>
  </text>
  <text font-size="12.7998" style="fill: #000000;text-anchor:start;font-family:sans-serif;font-style:normal;font-weight:normal" x="663.702" y="417.481">
    <tspan x="663.702" y="417.481">loser is out</tspan>
  </text>
  <g>
    <path style="fill: none; fill-opacity:0; stroke-width: 2; stroke: #000000" d="M 625.502 398 C 637.454,398 625.502,415 651.77,414.27"/>
    <polygon style="fill: #000000" points="659.267,414.062 649.409,419.338 651.77,414.27 649.132,409.342 "/>
    <polygon style="fill: none; fill-opacity:0; stroke-width: 2; stroke: #000000" points="659.267,414.062 649.409,419.338 651.77,414.27 649.132,409.342 "/>
  </g>
  <g>
    <path style="fill: #ffffff" d="M 839.502 277 C 867.127,277 857.919,277 876.335,277 C 894.752,277 848.71,313.833 894.752,313.833 C 940.794,313.833 894.752,277 913.169,277 C 931.585,277 940.794,277 950.002,277 C 950.002,286.208 950.002,295.417 950.002,313.833 C 950.002,332.25 913.169,286.208 913.169,332.25 C 913.169,378.292 950.002,332.25 950.002,350.667 C 950.002,369.083 950.002,378.292 950.002,387.5 C 940.794,387.5 931.585,387.5 913.169,387.5 C 894.752,387.5 940.794,350.667 894.752,350.667 C 848.71,350.667 894.752,387.5 876.335,387.5 C 857.919,387.5 848.71,387.5 839.502,387.5 C 839.502,378.292 839.502,369.083 839.502,350.667 C 839.502,332.25 876.335,378.292 876.335,332.25 C 876.335,286.208 839.502,332.25 839.502,313.833 C 839.502,295.417 839.502,286.208 839.502,277z"/>
    <path style="fill: none; fill-opacity:0; stroke-width: 2; stroke: #000000" d="M 839.502 277 C 867.127,277 857.919,277 876.335,277 C 894.752,277 848.71,313.833 894.752,313.833 C 940.794,313.833 894.752,277 913.169,277 C 931.585,277 940.794,277 950.002,277 C 950.002,286.208 950.002,295.417 950.002,313.833 C 950.002,332.25 913.169,286.208 913.169,332.25 C 913.169,378.292 950.002,332.25 950.002,350.667 C 950.002,369.083 950.002,378.292 950.002,387.5 C 940.794,387.5 931.585,387.5 913.169,387.5 C 894.752,387.5 940.794,350.667 894.752,350.667 C 848.71,350.667 894.752,387.5 876.335,387.5 C 857.919,387.5 848.71,387.5 839.502,387.5 C 839.502,378.292 839.502,369.083 839.502,350.667 C 839.502,332.25 876.335,378.292 876.335,332.25 C 876.335,286.208 839.502,332.25 839.502,313.833 C 839.502,295.417 839.502,286.208 839.502,277"/>
    <path style="fill: none; fill-opacity:0; stroke-width: 0.2; stroke: #000000" d="M 839.502 277 C 867.127,277 857.919,277 876.335,277 C 894.752,277 848.71,313.833 894.752,313.833 C 940.794,313.833 894.752,277 913.169,277 C 931.585,277 940.794,277 950.002,277 C 950.002,286.208 950.002,295.417 950.002,313.833 C 950.002,332.25 913.169,286.208 913.169,332.25 C 913.169,378.292 950.002,332.25 950.002,350.667 C 950.002,369.083 950.002,378.292 950.002,387.5 C 940.794,387.5 931.585,387.5 913.169,387.5 C 894.752,387.5 940.794,350.667 894.752,350.667 C 848.71,350.667 894.752,387.5 876.335,387.5 C 857.919,387.5 848.71,387.5 839.502,387.5 C 839.502,378.292 839.502,369.083 839.502,350.667 C 839.502,332.25 876.335,378.292 876.335,332.25 C 876.335,286.208 839.502,332.25 839.502,313.833 C 839.502,295.417 839.502,286.208 839.502,277"/>
  </g>
  <text font-size="12.7998" style="fill: #000000;text-anchor:start;font-family:sans-serif;font-style:normal;font-weight:normal" x="873.502" y="271">
    <tspan x="873.502" y="271">FINALE</tspan>
  </text>
  <g>
    <path style="fill: none; fill-opacity:0; stroke-width: 2; stroke: #000000" d="M 755.502 282 C 797.502,276 782.502,301 827.78,298.53"/>
    <polygon style="fill: #000000" points="835.269,298.122 825.556,303.659 827.78,298.53 825.012,293.674 "/>
    <polygon style="fill: none; fill-opacity:0; stroke-width: 2; stroke: #000000" points="835.269,298.122 825.556,303.659 827.78,298.53 825.012,293.674 "/>
  </g>
  <text font-size="12.7998" style="fill: #000000;text-anchor:start;font-family:sans-serif;font-style:normal;font-weight:normal" x="776.502" y="281">
    <tspan x="776.502" y="281">winner</tspan>
  </text>
  <g>
    <path style="fill: none; fill-opacity:0; stroke-width: 2; stroke: #000000" d="M 654.502 370 C 716.254,370 778.75,313 830.766,313"/>
    <polygon style="fill: #000000" points="838.266,313 828.266,318 830.766,313 828.266,308 "/>
    <polygon style="fill: none; fill-opacity:0; stroke-width: 2; stroke: #000000" points="838.266,313 828.266,318 830.766,313 828.266,308 "/>
  </g>
  <text font-size="12.7998" style="fill: #000000;text-anchor:start;font-family:sans-serif;font-style:normal;font-weight:normal" x="750.702" y="350.981">
    <tspan x="750.702" y="350.981">winner</tspan>
  </text>
  <text font-size="12.7998" style="fill: #000000;text-anchor:start;font-family:sans-serif;font-style:normal;font-weight:normal" x="831.502" y="404">
    <tspan x="831.502" y="404">final 2-player game</tspan>
  </text>
</svg>
