<svg version="1" xmlns="http://www.w3.org/2000/svg" width="202.667" height="202.667" viewBox="0 0 152.000000 152.000000"><path d="M90.8 20.9c-9.8 3.9-15.6 9.3-17.4 16.5-.3 1.4-1.2 2.6-1.9 2.6-2.1 0-3.7 5.2-2.5 8.4 1.5 4.1 1.3 4.5-2.7 5.1-6.8 1.2-9.2 2.3-19.1 9.4C35.7 71.1 24.7 77 21 77c-1.4-.1-5.2-.7-8.5-1.5-7.8-1.9-7.7-1.9-6.3.7 1.7 3.1 2.7 3.6 4.9 3.1 1-.3 1.9-.1 1.9.5 0 .5 1 1 2.3 1 1.2 0 3.6.3 5.2.7 4.2.9 12.9.6 13.5-.5.3-.5 1.4-.7 2.5-.6 1.1.2 2.8-.3 3.8-1.2.9-.8 1.7-1.2 1.7-.9 0 1.7-6.4 16.7-8.7 20.2l-2.5 4-7.6-.2c-4.3-.1-9.6-.4-12-.6-4.5-.6-11.7 1.6-10.8 3.2.3.5 2.5.9 4.8.9 2.4 0 4.5.1 4.8.2.7.2 6.7.9 11.5 1.4 2.1.2 4.1.8 4.2 1.3.4 1.2-4.1 3.4-8.2 4-5.8.9-11.5 4-11.5 6.3v2.1l2.9-2c1.8-1.3 4.5-2.1 7-2.1 5.3 0 9.6-1.9 14.6-6.4 2.2-2 4.7-3.6 5.6-3.6.8 0 2.4-1 3.6-2.3 1.1-1.2 4-4.1 6.5-6.4 2.5-2.3 5.7-5.6 7.1-7.4l2.5-3.2 1.7 5.8c1.8 6.5 6.6 14.4 11.3 19 2.7 2.7 3 3.4 2.4 6.5-.4 1.9-.6 4.5-.4 5.7.5 3.4 5.9 8.3 9.1 8.3 4 0 4.2-.8 1-4.1-2-2.1-2.9-4-2.9-6.3v-3.2l6.9 3.4c3.8 1.9 7.7 3.2 8.7 3 1.6-.4 1.4-.7-1.1-1.7C89.7 123 79 116 79 115.4c0-.2 2.6-4.3 5.7-9.1s6.7-11.2 8-14.2C93.9 89 95 87 95 87.6c0 .6 3.2 4.2 7.2 8s8.7 8.4 10.4 10.1c1.8 1.8 3.9 3.3 4.8 3.3.8 0 1.8.4 2.1 1 .9 1.5 8.5 3.4 14.4 3.5 5.6.2 7.1-.7 10.8-6.3 2.4-3.4.8-3.8-3.7-.8-3.9 2.6-7.2 3.1-12 1.7-2.2-.7-1.9-.9 3-2.4 3-.9 7.2-2.8 9.2-4.2 2-1.4 5-2.5 6.7-2.5 3.9 0 4.8-1.6 1.3-2.3-1.7-.4-5.1.4-9 1.9-4.9 1.9-7.9 2.5-13 2.3-3.7-.1-7.4-.6-8.4-1-.9-.5-2.9-4.6-4.4-9.1-1.4-4.6-3.3-9.6-4.1-11.2-1.4-2.7-1.4-2.8.3-2.1 1.1.4 5.1 1.6 8.9 2.7 8.2 2.3 11.5 5.1 14.7 12.2 2 4.5 2.3 4.8 2.6 2.5.4-3.7-3.8-12.6-8.6-17.9-2.4-2.8-6.6-5.8-10.8-7.9C109 65 95 56.8 95 56c0-.3 1.6-.4 3.5-.2 3.1.4 4.1-.1 7.4-3.6 4.3-4.5 6.3-10.6 6.2-18.9-.1-12.4-8.6-17.3-21.3-12.4zM78.5 80.7C80 83 81 85.9 81 88c0 4.2-5 21.1-6.1 20.5-1.1-.7-5.9-16.4-6.3-20.5-.4-3.9 3.4-11 5.9-11 .8 0 2.6 1.7 4 3.7z"/></svg>